<svg width="20" height="20" viewBox="0 0 20 20" fill="none" xmlns="http://www.w3.org/2000/svg">
<path d="M15 8.125H13.75C13.7495 7.62787 13.5518 7.15125 13.2003 6.79972C12.8488 6.4482 12.3721 6.2505 11.875 6.25V5C12.7035 5.00099 13.4978 5.33055 14.0836 5.91639C14.6694 6.50222 14.999 7.2965 15 8.125Z" fill="#F2AC29"/>
<path d="M17.5 8.125H16.25C16.2487 6.96508 15.7873 5.85305 14.9671 5.03287C14.1469 4.21268 13.0349 3.75132 11.875 3.75V2.5C13.3663 2.50165 14.7961 3.09482 15.8506 4.14935C16.9052 5.20389 17.4983 6.63367 17.5 8.125Z" fill="#F2AC29"/>
<path d="M16.25 18.125H16.1437C3.86249 17.4187 2.11874 7.05625 1.87499 3.89375C1.8369 3.39797 1.99729 2.90736 2.32091 2.52983C2.64452 2.1523 3.10484 1.91878 3.60062 1.88063C3.6502 1.87688 3.69999 1.875 3.74999 1.875H7.04374C7.29409 1.87476 7.53874 1.94969 7.74601 2.0901C7.95328 2.23051 8.11361 2.42992 8.20624 2.6625L9.15624 5C9.24771 5.22722 9.27041 5.4763 9.22152 5.71631C9.17263 5.95631 9.0543 6.17667 8.88124 6.35L7.54999 7.69375C7.75709 8.87583 8.32273 9.96562 9.1702 10.8153C10.0177 11.665 11.106 12.2335 12.2875 12.4438L13.6437 11.1C13.8197 10.9288 14.0421 10.8133 14.2833 10.7677C14.5245 10.7221 14.7737 10.7486 15 10.8438L17.3562 11.7875C17.5853 11.8831 17.7808 12.0446 17.9177 12.2517C18.0546 12.4587 18.1267 12.7018 18.125 12.95V16.25C18.125 16.7473 17.9274 17.2242 17.5758 17.5758C17.2242 17.9275 16.7473 18.125 16.25 18.125ZM3.74999 3.125C3.66792 3.12475 3.58659 3.14068 3.51067 3.17186C3.43475 3.20304 3.36571 3.24887 3.3075 3.30673C3.24929 3.36459 3.20305 3.43336 3.17141 3.50909C3.13977 3.58483 3.12336 3.66605 3.12312 3.74813C3.12312 3.76563 3.12374 3.78292 3.12499 3.8C3.41249 7.5 5.25624 16.25 16.2125 16.875C16.3779 16.8849 16.5405 16.8287 16.6645 16.7188C16.7885 16.6088 16.8638 16.4542 16.8737 16.2887L16.875 16.25V12.95L14.5187 12.0062L12.725 13.7875L12.425 13.75C6.98749 13.0688 6.24999 7.63125 6.24999 7.575L6.21249 7.275L7.98749 5.48125L7.04999 3.125H3.74999Z" fill="#F2AC29"/>
</svg>
