<svg width="20" height="20" viewBox="0 0 20 20" fill="none" xmlns="http://www.w3.org/2000/svg">
<path d="M9.91889 4.98413C9.42443 4.98413 8.94108 5.13075 8.52996 5.40546C8.11884 5.68016 7.79841 6.07061 7.60919 6.52742C7.41997 6.98424 7.37046 7.4869 7.46692 7.97186C7.56339 8.45681 7.80149 8.90227 8.15112 9.2519C8.50075 9.60153 8.94621 9.83963 9.43116 9.93609C9.91611 10.0326 10.4188 9.98305 10.8756 9.79383C11.3324 9.60461 11.7229 9.28418 11.9976 8.87306C12.2723 8.46193 12.4189 7.97858 12.4189 7.48413C12.4181 6.82132 12.1545 6.18587 11.6858 5.7172C11.2171 5.24852 10.5817 4.98489 9.91889 4.98413ZM9.91889 8.73413C9.67166 8.73413 9.42998 8.66082 9.22442 8.52347C9.01886 8.38612 8.85865 8.19089 8.76404 7.96249C8.66943 7.73408 8.64467 7.48274 8.6929 7.24027C8.74113 6.99779 8.86019 6.77506 9.035 6.60025C9.20982 6.42543 9.43255 6.30638 9.67502 6.25815C9.9175 6.20992 10.1688 6.23467 10.3972 6.32928C10.6256 6.42389 10.8209 6.58411 10.9582 6.78967C11.0956 6.99523 11.1689 7.2369 11.1689 7.48413C11.1685 7.81553 11.0367 8.13325 10.8023 8.36759C10.568 8.60193 10.2503 8.73375 9.91889 8.73413Z" fill="#F2AC29"/>
<path d="M14.7229 2.67646C13.5351 1.48897 11.9495 0.783561 10.2722 0.696363C8.59493 0.609166 6.94478 1.14636 5.64026 2.20428C4.33575 3.2622 3.46934 4.76583 3.20827 6.42499C2.94719 8.08414 3.30996 9.78119 4.22654 11.1886L8.94947 18.4391C9.05457 18.6004 9.19828 18.733 9.36756 18.8248C9.53685 18.9165 9.72635 18.9646 9.91891 18.9646C10.1115 18.9646 10.301 18.9165 10.4702 18.8248C10.6395 18.733 10.7832 18.6004 10.8883 18.4391L15.6114 11.1886C16.4619 9.88302 16.8378 8.32477 16.676 6.77503C16.5142 5.22529 15.8247 3.77825 14.7229 2.67646ZM14.5641 10.5063L9.91893 17.6372L5.27373 10.5063C3.85185 8.32353 4.15682 5.40243 5.99885 3.56032C6.51363 3.04552 7.12478 2.63716 7.79739 2.35855C8.47 2.07994 9.1909 1.93654 9.91893 1.93654C10.647 1.93654 11.3679 2.07994 12.0405 2.35855C12.7131 2.63716 13.3242 3.04552 13.839 3.56032C15.681 5.40243 15.986 8.32353 14.5641 10.5063Z" fill="#F2AC29"/>
</svg>
