<svg width="30" height="30" viewBox="0 0 30 30" fill="none" xmlns="http://www.w3.org/2000/svg">
<path d="M26.6669 5H3.33354C2.89151 5 2.46759 5.17559 2.15503 5.48816C1.84246 5.80072 1.66687 6.22464 1.66687 6.66667V23.3333C1.66687 23.7754 1.84246 24.1993 2.15503 24.5118C2.46759 24.8244 2.89151 25 3.33354 25H26.6669C27.1089 25 27.5328 24.8244 27.8454 24.5118C28.1579 24.1993 28.3335 23.7754 28.3335 23.3333V6.66667C28.3335 6.22464 28.1579 5.80072 27.8454 5.48816C27.5328 5.17559 27.1089 5 26.6669 5ZM25.3835 23.3333H4.71687L10.5502 17.3L9.3502 16.1417L3.33354 22.3667V7.93333L13.6919 18.2417C14.0041 18.5521 14.4266 18.7263 14.8669 18.7263C15.3072 18.7263 15.7296 18.5521 16.0419 18.2417L26.6669 7.675V22.2583L20.5335 16.125L19.3585 17.3L25.3835 23.3333ZM4.4252 6.66667H25.3169L14.8669 17.0583L4.4252 6.66667Z" fill="white"/>
</svg>
