<svg width="26" height="25" viewBox="0 0 26 25" fill="none" xmlns="http://www.w3.org/2000/svg">
<path d="M4.56842 0C2.03772 0 0 2.03612 0 4.56485V20.4352C0 22.9639 2.03772 25 4.56842 25H13.1767V15.2266H10.5903V11.7078H13.1767V8.70158C13.1767 6.3397 14.7049 4.1711 18.2252 4.1711C19.6505 4.1711 20.7045 4.30783 20.7045 4.30783L20.6216 7.59378C20.6216 7.59378 19.5467 7.58363 18.3737 7.58363C17.1043 7.58363 16.9007 8.16807 16.9007 9.13832V11.7079H20.7224L20.5559 15.2266H16.9007V25.0001H20.4511C22.9818 25.0001 25.0195 22.9639 25.0195 20.4352V4.56488C25.0195 2.03615 22.9818 2.5e-05 20.4511 2.5e-05H4.56839L4.56842 0Z" fill="white"/>
</svg>
