<svg width="30" height="30" viewBox="0 0 30 30" fill="none" xmlns="http://www.w3.org/2000/svg">
<path d="M14.8784 7.47607C14.1367 7.47607 13.4117 7.69601 12.795 8.10806C12.1783 8.52012 11.6976 9.10579 11.4138 9.79101C11.13 10.4762 11.0557 11.2302 11.2004 11.9577C11.3451 12.6851 11.7023 13.3533 12.2267 13.8777C12.7512 14.4022 13.4193 14.7593 14.1468 14.904C14.8742 15.0487 15.6282 14.9745 16.3134 14.6906C16.9986 14.4068 17.5843 13.9261 17.9964 13.3095C18.4084 12.6928 18.6284 11.9678 18.6284 11.2261C18.6272 10.2319 18.2318 9.27869 17.5288 8.57567C16.8257 7.87266 15.8726 7.47721 14.8784 7.47607ZM14.8784 13.1011C14.5075 13.1011 14.145 12.9911 13.8367 12.7851C13.5283 12.5791 13.288 12.2862 13.1461 11.9436C13.0042 11.601 12.967 11.224 13.0394 10.8603C13.1117 10.4966 13.2903 10.1625 13.5525 9.90025C13.8148 9.63803 14.1488 9.45945 14.5126 9.3871C14.8763 9.31475 15.2533 9.35189 15.5959 9.4938C15.9385 9.63571 16.2313 9.87604 16.4374 10.1844C16.6434 10.4927 16.7534 10.8552 16.7534 11.2261C16.7528 11.7232 16.5551 12.1998 16.2035 12.5513C15.852 12.9028 15.3755 13.1005 14.8784 13.1011Z" fill="white"/>
<path d="M22.0843 4.01466C20.3027 2.23343 17.9243 1.17531 15.4084 1.04451C12.8924 0.913718 10.4172 1.71952 8.46043 3.30639C6.50365 4.89326 5.20405 7.14872 4.81243 9.63745C4.42082 12.1262 4.96497 14.6718 6.33984 16.7829L13.4242 27.6586C13.5819 27.9006 13.7975 28.0995 14.0514 28.2371C14.3053 28.3747 14.5896 28.4468 14.8784 28.4468C15.1672 28.4468 15.4515 28.3747 15.7054 28.2371C15.9593 28.0995 16.1749 27.9006 16.3325 27.6586L23.4172 16.7829C24.6929 14.8245 25.2567 12.4871 25.014 10.1625C24.7714 7.8379 23.737 5.66734 22.0843 4.01466ZM21.8462 15.7594L14.8784 26.4557L7.91063 15.7594C5.77781 12.4853 6.23525 8.10362 8.9983 5.34046C9.77048 4.56825 10.6872 3.95571 11.6961 3.5378C12.705 3.11988 13.7864 2.90478 14.8784 2.90478C15.9705 2.90478 17.0518 3.11988 18.0607 3.5378C19.0696 3.95571 19.9864 4.56825 20.7585 5.34046C23.5216 8.10362 23.979 12.4853 21.8462 15.7594Z" fill="white"/>
</svg>
