<svg width="26" height="26" viewBox="0 0 26 26" fill="none" xmlns="http://www.w3.org/2000/svg">
<path d="M0.0354773 12.1258C0.0354773 5.15547 5.49599 0 12.5453 0C19.5945 0 25.055 5.15547 25.055 12.1258C25.055 19.0922 19.5945 24.2516 12.5453 24.2516C11.2825 24.2516 10.0652 24.0844 8.92914 23.7711C8.70716 23.7107 8.47106 23.7295 8.26143 23.8242L5.76886 24.9188C5.61847 24.9855 5.45393 25.0143 5.28979 25.0024C5.12564 24.9906 4.96694 24.9386 4.82769 24.8509C4.68844 24.7633 4.57292 24.6427 4.49135 24.4999C4.40977 24.3571 4.36464 24.1964 4.35995 24.032L4.28645 21.8023C4.28174 21.6683 4.2501 21.5366 4.19342 21.415C4.13674 21.2934 4.05617 21.1844 3.95651 21.0945C2.7023 19.9643 1.70375 18.5797 1.02747 17.0333C0.351188 15.4868 0.0127374 13.8141 0.0346954 12.1266L0.0354773 12.1258ZM8.70944 9.84297L5.04017 15.6781C4.67348 16.2273 5.37402 16.8664 5.89552 16.4594L9.84548 13.4688C9.97517 13.3677 10.1349 13.3128 10.2994 13.3128C10.4638 13.3128 10.6235 13.3677 10.7532 13.4688L13.6688 15.6578C13.8766 15.8119 14.1139 15.9216 14.366 15.98C14.6181 16.0384 14.8795 16.0442 15.134 15.9973C15.3885 15.9503 15.6305 15.8514 15.8451 15.7069C16.0596 15.5623 16.2421 15.3751 16.3811 15.157L20.0503 9.32188C20.417 8.77266 19.7165 8.14609 19.195 8.54063L15.245 11.5312C15.1175 11.6321 14.9596 11.687 14.797 11.687C14.6344 11.687 14.4765 11.6321 14.349 11.5312L11.4295 9.34219C11.222 9.18543 10.9841 9.07354 10.731 9.01363C10.4778 8.95373 10.215 8.94711 9.95916 8.99422C9.70332 9.04132 9.46009 9.1411 9.24494 9.28722C9.02979 9.43334 8.84742 9.62261 8.70944 9.84297Z" fill="white"/>
</svg>
