<svg width="26" height="25" viewBox="0 0 26 25" fill="none" xmlns="http://www.w3.org/2000/svg">
<path d="M0.0731359 25L1.76446 18.79C0.650009 16.8811 0.0644991 14.71 0.068132 12.5C0.068132 5.59625 5.66875 0 12.5779 0C19.487 0 25.0877 5.59625 25.0877 12.5C25.0877 19.4037 19.487 25 12.5779 25C10.3671 25.0035 8.1953 24.4189 6.28548 23.3062L0.0731359 25ZM8.06312 6.635C7.90157 6.64502 7.74372 6.68753 7.59901 6.76C7.46331 6.83678 7.33943 6.93278 7.23122 7.045C7.08111 7.18625 6.99604 7.30874 6.90472 7.4275C6.44237 8.02874 6.19368 8.76677 6.19792 9.52499C6.20042 10.1375 6.36054 10.7337 6.61074 11.2912C7.12239 12.4187 7.9643 13.6125 9.07641 14.7187C9.34412 14.985 9.60558 15.2525 9.88705 15.5012C11.2674 16.7156 12.9122 17.5913 14.6908 18.0587L15.4026 18.1675C15.634 18.18 15.8655 18.1625 16.0981 18.1512C16.4625 18.1324 16.8182 18.0339 17.1402 17.8625C17.304 17.7782 17.4639 17.6864 17.6193 17.5875C17.6193 17.5875 17.6731 17.5525 17.7757 17.475C17.9446 17.35 18.0484 17.2612 18.1885 17.115C18.2924 17.0075 18.3824 16.8812 18.4512 16.7375C18.5488 16.5337 18.6464 16.145 18.6864 15.8212C18.7164 15.5737 18.7077 15.4387 18.7039 15.355C18.6989 15.2212 18.5876 15.0825 18.4662 15.0237L17.7382 14.6975C17.7382 14.6975 16.6498 14.2237 15.9856 13.9212C15.9155 13.8907 15.8405 13.8734 15.7641 13.87C15.6785 13.8612 15.5921 13.8708 15.5105 13.8982C15.4289 13.9256 15.3542 13.9701 15.2913 14.0287V14.0262C15.285 14.0262 15.2012 14.0975 14.2967 15.1925C14.2448 15.2622 14.1733 15.3149 14.0913 15.3438C14.0093 15.3728 13.9206 15.3766 13.8364 15.355C13.7549 15.3332 13.675 15.3056 13.5974 15.2725C13.4423 15.2075 13.3885 15.1825 13.2822 15.1362L13.2759 15.1337C12.5603 14.8215 11.8976 14.3998 11.3119 13.8837C11.1543 13.7462 11.0079 13.5962 10.8578 13.4512C10.3656 12.9803 9.93673 12.4475 9.58181 11.8662L9.508 11.7475C9.45499 11.6677 9.41212 11.5816 9.3804 11.4912C9.33286 11.3075 9.45671 11.16 9.45671 11.16C9.45671 11.16 9.7607 10.8275 9.90206 10.6475C10.0198 10.4979 10.1296 10.3423 10.2311 10.1812C10.3787 9.94374 10.425 9.69999 10.3474 9.51124C9.99713 8.65624 9.63435 7.80499 9.26156 6.96C9.18775 6.7925 8.96883 6.6725 8.76992 6.64875C8.70237 6.64125 8.63482 6.63375 8.56727 6.62875C8.39927 6.62041 8.23092 6.62208 8.06312 6.63375V6.635Z" fill="white"/>
</svg>
